# xmcd CD database file
#
# Track frame offsets:
#	150
#	17637
#	35120
#	54237
#	65533
#	76616
#	88748
#	103677
#	116659
#	131929
#	141275
#	155743
#	171637
#	184655
#	199201
#	216759
#	238316
#	256563
#	274181
#	296529
#	313197
#
# Disc length: 4422 seconds
#
# Revision: 4
# Processed by: cddbd v1.5.2PL0 Copyright (c) Steve Scherf et al.
# Submitted via: jetAudio 7
#
DISCID=40114415
DTITLE=Various Artist - Romantic Collection - Disco [CDTwo)
DYEAR=1900
DGENRE=Various
TTITLE0=Just Blue
TTITLE1=Little Russian
TTITLE2=Marrakesh
TTITLE3=Yellow River
TTITLE4=Le Chemin De Pa Pa
TTITLE5=Do It Do It Again
TTITLE6=Amor
TTITLE7=Hafanana
TTITLE8=Dancando Lambada
TTITLE9=Cancion De Mariachi
TTITLE10=To Do Pasara Maria
TTITLE11=Pasedena
TTITLE12=Nah Nah Nah
TTITLE13=Felichita
TTITLE14=L'italiano
TTITLE15=Suzana
TTITLE16=Life Is Life
TTITLE17=Don't Worry Be Happy
TTITLE18=Those Were The Days
TTITLE19=Lady Lady
TTITLE20=Lady In Red
EXTD=Barracuda Records, EMI Electrola GmbH
EXTT0=Space
EXTT1=Mr. Zhivago
EXTT2=GRB
EXTT3=Christie
EXTT4=Joe Dassin
EXTT5=Rafaella Carrà
EXTT6=Julio Iglesias
EXTT7=Afric Simone
EXTT8=Kaoma
EXTT9=Los Lobos
EXTT10=Afric Simone
EXTT11=Maywood
EXTT12=Vaya Con Dios
EXTT13=Al Bano and Romina Power
EXTT14=Toto Cutugno
EXTT15=Art Company
EXTT16=Opus
EXTT17=Bobby McFerryn
EXTT18=Mary Hopkins
EXTT19=Joe Esposito
EXTT20=Symphonic Rock Orchestra
PLAYORDER=
